<svg width="265" height="166" viewBox="0 0 265 166" fill="none" xmlns="http://www.w3.org/2000/svg">
<g clip-path="url(#clip0_19_351)">
<path d="M0 0H264.433V165.271H0V0Z" fill="black"/>
<path d="M0 46.0938H264.433V114.022H0V46.0938Z" fill="white"/>
<path d="M238.092 88.1049C238.092 95.181 238.023 100.11 238.023 106.551C238.023 107.505 240.557 107.425 241.653 107.425C242.543 107.425 245.42 107.505 245.42 106.789C245.42 100.11 245.42 94.6245 245.42 87.8664C245.42 86.4352 245.694 84.3681 245.831 83.6525C246.036 82.3804 246.242 80.6312 246.584 78.9616C248.502 69.5797 249.803 62.3446 251.516 52.9628C251.721 51.9292 250.009 51.8497 248.16 51.8497C246.379 51.8497 244.461 52.0882 244.324 53.1218C243.502 60.2774 243.023 65.5249 242.133 72.601C242.133 72.8395 242.064 73.3961 241.79 73.3961C241.516 73.3961 241.379 72.919 241.379 72.6805C240.626 66.2404 239.872 60.0389 239.05 53.1218C238.913 51.9292 236.996 51.8497 234.873 51.8497C233.708 51.8497 231.585 51.9292 231.79 52.9628C233.503 62.2651 235.078 70.1363 236.927 79.4386C237.27 81.1878 237.749 83.1755 237.886 84.209C238.023 85.0836 238.092 86.6738 238.092 88.1049ZM219.61 106.153C219.61 99.0769 219.61 93.5114 219.61 86.1172C219.61 83.891 219.268 82.5394 218.377 81.1083C217.076 79.1206 214.884 78.9616 214.884 78.6436C214.884 78.405 217.008 77.928 218.24 75.7813C219.131 74.3502 219.405 72.8395 219.405 70.5338C219.405 67.5921 219.405 66.8765 219.405 63.7757C219.405 60.4364 218.651 57.2562 216.597 55.03C214.542 52.7243 211.528 51.7702 208.583 51.7702C206.734 51.7702 203.378 51.7702 201.803 51.7702C200.912 51.7702 200.433 51.6112 200.022 52.2472C199.816 52.6447 199.748 53.4398 199.748 54.2349C199.748 69.5798 199.748 89.9336 199.748 105.676C199.748 107.425 200.296 107.425 203.104 107.425C206.528 107.425 207.076 107.425 207.076 105.914C207.076 97.0892 207.076 92.0802 207.076 83.8115C207.076 82.6984 207.35 82.7779 209.748 82.7779C211.46 82.7779 212.282 85.0041 212.282 87.7869C212.282 91.4442 212.282 99.6334 212.282 106.073C212.282 107.505 212.556 107.425 215.843 107.425C219.131 107.425 219.61 107.425 219.61 106.153ZM212.076 65.4454C212.076 67.274 212.076 68.8642 212.076 70.8519C212.076 71.6469 212.008 72.8395 211.117 73.9526C210.364 74.9067 209.268 75.1452 208.652 75.1452C208.104 75.1452 207.693 75.2247 207.419 74.9862C207.076 74.6682 207.076 74.1117 207.076 73.3961C207.076 68.9437 207.076 68.9437 207.076 61.5495C207.076 61.152 207.145 60.834 207.282 60.5159C207.556 60.1184 208.035 60.1184 208.652 60.1184C210.227 60.1184 210.638 60.4364 211.117 61.0725C212.008 62.2651 212.076 63.7757 212.076 65.4454ZM185.6 95.9761C185.6 84.1295 185.6 74.8272 185.6 63.1397C185.6 56.2226 181.491 51.7702 175.6 51.7702C169.916 51.7702 165.669 56.2226 165.669 63.1397C165.669 74.9862 165.669 84.05 165.669 95.9761C165.669 102.496 169.299 107.425 175.6 107.425C182.244 107.425 185.6 102.655 185.6 95.9761ZM178.203 64.7298C178.203 74.9862 178.203 83.891 178.203 94.2269C178.203 96.4531 177.998 98.9974 175.6 98.9974C173.066 98.9974 172.998 96.4531 172.998 94.2269C172.998 83.891 172.998 74.9862 172.998 64.7298C172.998 62.5036 173.546 59.9594 175.6 59.9594C177.587 59.9594 178.203 62.5036 178.203 64.7298ZM132.247 64.6503C132.247 76.5764 145.192 86.1967 145.192 93.1138C145.192 94.2269 145.123 95.4195 145.055 96.7712C144.918 98.1228 144.438 99.7129 142.589 99.7129C140.534 99.7129 140.055 97.9638 140.055 95.022C140.055 94.2269 140.055 92.7163 140.055 91.6827C140.055 91.0467 138.754 91.0467 136.014 91.0467C133.274 91.0467 132.658 91.1262 132.658 91.8417C132.658 92.8753 132.658 95.4195 132.658 96.2941C132.658 103.529 136.973 107.425 142.589 107.425C147.52 107.425 149.096 105.676 151.424 100.826C152.246 99.0769 152.52 96.0556 152.52 93.6704C152.52 80.7107 139.438 74.2707 139.438 64.8888C139.438 63.8552 139.507 62.9012 139.644 61.7085C139.781 60.4364 140.74 59.1643 141.973 59.1643C143.137 59.1643 144.438 60.5159 144.438 62.7421C144.438 63.4577 144.438 65.3659 144.438 66.3995C144.438 66.956 145.808 66.956 148.411 66.956C150.739 66.956 151.698 67.0355 151.698 66.479C151.698 65.1274 151.698 63.7757 151.698 62.5831C151.698 56.7791 147.794 51.7702 141.973 51.7702C137.315 51.7702 134.85 55.1095 133.959 56.9381C133.069 58.7668 132.247 62.4241 132.247 64.6503ZM118.841 106.073C118.841 85.8787 118.841 66.0019 118.841 53.2013C118.841 51.9292 118.635 51.8497 115.005 51.8497C111.786 51.8497 111.512 51.9292 111.512 53.1218C111.512 72.2035 111.512 86.2762 111.512 106.233C111.512 107.346 111.649 107.346 115.005 107.346C118.772 107.346 118.841 107.266 118.841 106.073ZM91.2322 53.2013C90.4788 60.5159 89.4515 77.5305 88.4926 86.5147C88.4926 86.9123 88.4241 87.3098 88.1501 87.3098C87.9447 87.3098 87.8762 86.8328 87.8762 86.5147C87.0543 77.61 86.3009 61.2315 85.616 53.2013C85.4105 52.0087 85.342 51.7702 81.7121 51.7702C78.2875 51.7702 77.8081 51.7702 77.9451 52.9628C80.2738 72.283 82.6709 93.1933 84.0407 106.073C84.1777 107.425 84.8626 107.425 88.0132 107.425C90.9582 107.425 91.6431 107.425 91.7801 106.233C93.3554 92.0802 96.232 72.442 98.6292 53.0423C98.7661 51.9292 98.2182 51.8497 94.8622 51.8497C91.5747 51.8497 91.3692 51.8497 91.2322 53.2013ZM65.3972 95.34C65.3972 83.255 65.3972 75.8608 65.3972 63.7757C65.3972 60.3569 64.5754 57.1767 62.5891 55.03C60.466 52.7243 57.4524 51.7702 54.5073 51.7702C52.6581 51.7702 49.165 51.7702 47.5213 51.7702C46.6309 51.7702 46.1515 51.6907 45.7405 52.2472C45.4666 52.6447 45.4666 53.3603 45.4666 54.2349C45.4666 69.6593 45.4666 89.218 45.4666 104.96C45.4666 105.755 45.4666 106.471 45.7405 106.869C46.0145 107.505 46.5624 107.425 47.4528 107.425C49.2335 107.425 52.3156 107.425 54.5758 107.425C57.1099 107.425 60.2605 106.63 62.4522 104.006C64.7808 101.224 65.3972 98.2818 65.3972 95.34ZM58.0003 65.4454C58.0003 76.0993 58.0003 83.0959 58.0003 93.7499C58.0003 94.9425 58.0688 96.2941 57.2469 97.6457C56.4935 98.7588 55.4662 99.0769 54.6443 99.0769C54.0279 99.0769 53.2745 99.1564 53.069 98.9179C52.795 98.5998 52.795 98.0433 52.795 97.3277C52.795 85.1631 52.795 73.9526 52.795 61.5495C52.795 61.0725 52.795 60.7545 53.0005 60.4364C53.206 60.1184 53.7539 60.1184 54.8497 60.1184C56.0826 60.1184 56.562 60.4364 57.1099 61.0725C57.9318 62.2651 58.0003 63.7757 58.0003 65.4454ZM19.0268 106.63C19.3692 102.019 19.6432 99.0769 20.0541 94.6245C20.1226 93.8294 20.8075 93.9884 22.1088 93.9884C23.2047 93.9884 24.0266 93.8294 24.0951 94.6245C24.643 98.9974 24.9169 102.019 25.4649 106.471C25.6018 107.584 26.9032 107.425 28.8894 107.425C30.7386 107.425 32.7933 107.505 32.6563 106.63C29.9167 85.8787 28.4099 73.4756 25.7388 53.1218C25.6018 51.7702 23.7526 51.6907 22.0403 51.6907C20.5336 51.6907 18.6158 51.7702 18.4788 52.8833C16.2187 72.0445 14.4379 85.9582 11.9038 106.71C11.8353 107.425 14.2325 107.425 15.2598 107.425C17.4515 107.425 18.9583 107.505 19.0268 106.63ZM20.6705 87.3893C20.9445 82.3009 21.2185 78.3255 21.5609 72.124C21.5609 71.8059 21.6979 69.8183 22.0403 69.8183C22.5198 69.8183 22.6568 71.5674 22.6568 71.965C22.9992 78.246 23.2047 81.5853 23.5471 87.4688C23.6156 88.1844 22.9307 88.0254 22.0403 88.0254C21.013 88.0254 20.602 87.9459 20.6705 87.3893Z" fill="black"/>
<path d="M241.047 129.652C241.047 138.226 241.047 142.67 241.047 151.206C241.047 151.596 241.353 151.596 242.78 151.596C244.377 151.596 244.751 151.557 244.751 151.206C244.751 142.67 244.751 138.265 244.751 129.652C244.751 129.145 244.683 128.482 244.989 128.209C245.158 128.131 245.6 128.131 245.974 128.131C246.552 128.131 247.027 128.131 247.435 128.131C247.809 128.131 247.843 127.937 247.843 126.144C247.843 124.663 247.809 124.312 247.401 124.312C245.26 124.312 240.571 124.312 238.431 124.312C238.023 124.312 237.955 124.585 237.955 126.222C237.955 127.859 238.057 128.131 238.567 128.131C238.872 128.131 239.348 128.131 239.824 128.131C240.198 128.131 240.639 128.131 240.809 128.209C241.115 128.482 241.047 129.145 241.047 129.652ZM225.863 139.045C227.053 143.956 227.46 146.022 228.582 150.543C228.82 151.518 229.193 151.596 230.077 151.596C231.81 151.596 231.776 151.479 231.776 150.465C231.776 140.721 231.776 131.289 231.776 124.974C231.776 124.351 231.742 124.312 230.009 124.312C228.31 124.312 228.208 124.39 228.208 125.013C228.208 129.496 228.208 132.77 228.208 136.901C228.208 137.33 228.208 138.071 227.97 138.071C227.766 138.071 227.63 137.447 227.562 137.057C226.509 132.926 225.524 128.755 224.81 125.559C224.538 124.468 224.368 124.312 222.907 124.312C221.412 124.312 221.344 124.312 221.344 124.857C221.344 134.173 221.344 141.189 221.344 150.933C221.344 151.518 221.344 151.596 223.043 151.596C224.81 151.596 224.912 151.518 224.912 150.894C224.912 145.554 224.912 143.138 224.912 138.071C224.912 137.564 224.912 136.745 225.15 136.745C225.388 136.745 225.66 138.187 225.863 139.045ZM206.676 151.44C206.914 151.673 207.492 151.596 208.035 151.596C209.496 151.596 213.098 151.596 214.559 151.596C214.933 151.596 214.967 151.44 214.967 149.647C214.967 147.932 214.933 147.776 214.525 147.776C213.608 147.776 212.215 147.776 211.297 147.776C210.923 147.776 210.448 147.737 210.278 147.62C210.108 147.503 210.108 146.762 210.108 146.256C210.108 143.138 210.108 143.566 210.108 140.448C210.108 139.941 210.04 139.552 210.346 139.318C210.482 139.24 210.855 139.201 211.195 139.201C211.807 139.201 212.452 139.201 212.724 139.201C213.166 139.201 213.166 138.967 213.166 137.33C213.166 135.615 213.132 135.381 212.724 135.381C212.419 135.381 211.671 135.381 211.093 135.381C210.822 135.381 210.584 135.42 210.346 135.225C210.074 134.991 210.142 134.563 210.142 134.212C210.142 131.6 210.142 131.678 210.142 129.067C210.142 128.56 210.142 128.599 210.312 128.326C210.414 128.17 210.822 128.131 211.093 128.131C211.739 128.131 213.574 128.131 214.491 128.131C214.933 128.131 214.933 127.898 214.933 126.144C214.933 124.624 214.933 124.312 214.525 124.312C212.656 124.312 209.36 124.312 207.492 124.312C207.152 124.312 206.914 124.312 206.71 124.624C206.506 124.935 206.472 124.974 206.472 125.481C206.472 134.835 206.472 140.76 206.472 150.114C206.472 150.582 206.404 151.167 206.676 151.44ZM193.765 129.652C193.765 138.226 193.765 142.67 193.765 151.206C193.765 151.596 194.071 151.596 195.498 151.596C197.095 151.596 197.469 151.557 197.469 151.206C197.469 142.67 197.469 138.265 197.469 129.652C197.469 129.145 197.401 128.482 197.707 128.209C197.877 128.131 198.318 128.131 198.692 128.131C199.27 128.131 199.745 128.131 200.153 128.131C200.527 128.131 200.561 127.937 200.561 126.144C200.561 124.663 200.527 124.312 200.119 124.312C197.979 124.312 193.289 124.312 191.149 124.312C190.741 124.312 190.673 124.585 190.673 126.222C190.673 127.859 190.775 128.131 191.285 128.131C191.59 128.131 192.066 128.131 192.542 128.131C192.916 128.131 193.357 128.131 193.527 128.209C193.833 128.482 193.765 129.145 193.765 129.652ZM178.751 139.045C179.94 143.956 180.348 146.022 181.469 150.543C181.707 151.518 182.081 151.596 182.964 151.596C184.697 151.596 184.663 151.479 184.663 150.465C184.663 140.721 184.663 131.289 184.663 124.974C184.663 124.351 184.629 124.312 182.896 124.312C181.197 124.312 181.095 124.39 181.095 125.013C181.095 129.496 181.095 132.77 181.095 136.901C181.095 137.33 181.095 138.071 180.858 138.071C180.654 138.071 180.518 137.447 180.45 137.057C179.397 132.926 178.411 128.755 177.698 125.559C177.426 124.468 177.256 124.312 175.795 124.312C174.3 124.312 174.232 124.312 174.232 124.857C174.232 134.173 174.232 141.189 174.232 150.933C174.232 151.518 174.232 151.596 175.931 151.596C177.698 151.596 177.799 151.518 177.799 150.894C177.799 145.554 177.799 143.138 177.799 138.071C177.799 137.564 177.799 136.745 178.037 136.745C178.275 136.745 178.547 138.187 178.751 139.045ZM167.484 145.983C167.484 140.175 167.484 135.615 167.484 129.885C167.484 126.494 165.446 124.312 162.524 124.312C159.703 124.312 157.597 126.494 157.597 129.885C157.597 135.693 157.597 140.136 157.597 145.983C157.597 149.179 159.397 151.596 162.524 151.596C165.819 151.596 167.484 149.257 167.484 145.983ZM163.815 130.665C163.815 135.693 163.815 140.058 163.815 145.125C163.815 146.217 163.713 147.464 162.524 147.464C161.266 147.464 161.232 146.217 161.232 145.125C161.232 140.058 161.232 135.693 161.232 130.665C161.232 129.574 161.504 128.326 162.524 128.326C163.509 128.326 163.815 129.574 163.815 130.665ZM148.066 131.99C148.066 132.497 148.644 132.419 149.765 132.419C151.328 132.419 151.6 132.302 151.6 131.912C151.6 131.483 151.6 130.275 151.6 129.807C151.6 126.962 150.003 124.312 146.809 124.312C143.751 124.312 141.882 126.806 141.882 129.807C141.882 135.654 141.882 140.292 141.882 146.139C141.882 149.101 143.751 151.596 146.809 151.596C149.969 151.596 151.6 149.374 151.6 146.139C151.6 145.632 151.6 144.697 151.6 144.112C151.6 143.41 151.294 143.371 149.867 143.371C148.372 143.371 148.066 143.332 148.066 143.878C148.066 144.775 148.066 145.359 148.066 145.905C148.066 146.529 147.794 147.464 146.809 147.464C145.755 147.464 145.518 146.334 145.518 145.242C145.518 140.214 145.518 135.537 145.518 130.548C145.518 129.535 145.755 128.326 146.809 128.326C147.692 128.326 148.066 129.418 148.066 129.963C148.066 130.353 148.066 131.445 148.066 131.99ZM118.188 129.652C118.188 138.226 118.188 142.67 118.188 151.206C118.188 151.596 118.494 151.596 119.921 151.596C121.518 151.596 121.892 151.557 121.892 151.206C121.892 142.67 121.892 138.265 121.892 129.652C121.892 129.145 121.824 128.482 122.129 128.209C122.299 128.131 122.741 128.131 123.115 128.131C123.693 128.131 124.168 128.131 124.576 128.131C124.95 128.131 124.984 127.937 124.984 126.144C124.984 124.663 124.95 124.312 124.542 124.312C122.401 124.312 117.712 124.312 115.572 124.312C115.164 124.312 115.096 124.585 115.096 126.222C115.096 127.859 115.198 128.131 115.708 128.131C116.013 128.131 116.489 128.131 116.965 128.131C117.338 128.131 117.78 128.131 117.95 128.209C118.256 128.482 118.188 129.145 118.188 129.652ZM108.89 150.933C108.89 141.033 108.89 131.289 108.89 125.013C108.89 124.39 108.788 124.351 106.987 124.351C105.39 124.351 105.254 124.39 105.254 124.974C105.254 134.329 105.254 141.228 105.254 151.011C105.254 151.557 105.322 151.557 106.987 151.557C108.856 151.557 108.89 151.518 108.89 150.933ZM95.3052 131.99C95.3052 132.497 95.8829 132.419 97.0042 132.419C98.5672 132.419 98.839 132.302 98.839 131.912C98.839 131.483 98.839 130.275 98.839 129.807C98.839 126.962 97.242 124.312 94.048 124.312C90.9899 124.312 89.1211 126.806 89.1211 129.807C89.1211 135.654 89.1211 140.292 89.1211 146.139C89.1211 149.101 90.9899 151.596 94.048 151.596C97.208 151.596 98.839 149.374 98.839 146.139C98.839 145.632 98.839 144.697 98.839 144.112C98.839 143.41 98.5332 143.371 97.1061 143.371C95.611 143.371 95.3052 143.332 95.3052 143.878C95.3052 144.775 95.3052 145.359 95.3052 145.905C95.3052 146.529 95.0334 147.464 94.048 147.464C92.9947 147.464 92.7568 146.334 92.7568 145.242C92.7568 140.214 92.7568 135.537 92.7568 130.548C92.7568 129.535 92.9947 128.326 94.048 128.326C94.9314 128.326 95.3052 129.418 95.3052 129.963C95.3052 130.353 95.3052 131.445 95.3052 131.99ZM82.417 150.933C82.417 141.033 82.417 131.289 82.417 125.013C82.417 124.39 82.3151 124.351 80.5143 124.351C78.9173 124.351 78.7813 124.39 78.7813 124.974C78.7813 134.329 78.7813 141.228 78.7813 151.011C78.7813 151.557 78.8493 151.557 80.5143 151.557C82.3831 151.557 82.417 151.518 82.417 150.933ZM66.1969 124.312C64.6678 124.312 64.4979 124.39 64.4979 124.935C64.4979 134.29 64.4979 140.643 64.4979 149.997C64.4979 150.504 64.4639 151.089 64.6678 151.362C64.8377 151.596 65.3134 151.596 65.7891 151.596C66.7405 151.596 70.682 151.596 72.313 151.596C72.7208 151.596 72.7548 151.479 72.7548 149.608C72.7548 147.971 72.7208 147.776 72.279 147.776C71.5315 147.776 70.0025 147.776 69.2549 147.776C68.9152 147.776 68.5074 147.737 68.3375 147.62C68.0997 147.425 68.1336 146.762 68.1336 146.256C68.1336 140.448 68.1336 133.315 68.1336 124.974C68.1336 124.351 67.9298 124.312 66.1969 124.312ZM57.945 135.303C57.945 131.522 57.945 134.017 57.945 130.197C57.945 128.248 57.4353 126.767 56.28 125.676C55.2607 124.702 53.9015 124.312 52.5424 124.312C51.625 124.312 49.892 124.312 49.0766 124.312C48.6688 124.312 48.397 124.273 48.2271 124.546C48.0912 124.74 48.0572 125.052 48.0572 125.52C48.0572 133.043 48.0572 143.021 48.0572 150.738C48.0572 151.596 48.2611 151.596 49.7901 151.596C51.3531 151.596 51.6929 151.634 51.6929 150.972C51.6929 148.672 51.6929 144.463 51.6929 142.475C51.6929 141.501 51.9647 141.267 52.4404 141.267C53.6977 141.267 55.1587 140.955 56.2461 139.825C57.5373 138.46 57.945 136.901 57.945 135.303ZM54.2753 131.016C54.2753 132.458 54.2753 133.276 54.2753 134.758C54.2753 135.498 54.3093 136.083 53.8676 136.745C53.4938 137.252 53.0181 137.369 52.6443 137.369C52.3045 137.369 52.0667 137.369 51.8968 137.33C51.6589 137.213 51.6929 136.901 51.6929 136.511C51.6929 132.692 51.6929 133.004 51.6929 129.106C51.6929 128.872 51.6929 128.716 51.7949 128.56C51.9308 128.404 52.3045 128.404 52.7123 128.404C53.2559 128.404 53.5618 128.56 53.8336 128.872C54.2413 129.457 54.2753 130.197 54.2753 131.016ZM38.7517 137.525C38.7517 137.174 38.8876 136.94 39.0236 136.395C39.873 132.458 40.6885 128.833 41.6059 124.818C41.7419 124.351 41.47 124.312 39.7711 124.312C38.0721 124.312 38.0042 124.312 37.9362 124.818C37.5964 127.196 37.1887 129.769 36.8829 131.717C36.8489 131.873 36.781 132.224 36.6111 132.224C36.4751 132.224 36.4072 131.951 36.3392 131.678C36.0334 129.924 35.6597 127.469 35.3199 124.857C35.2179 124.312 35.082 124.312 33.3831 124.312C31.888 124.312 31.4463 124.351 31.5482 124.857C32.5336 128.911 33.3831 132.536 34.2665 136.511C34.3685 136.94 34.4704 137.252 34.4704 137.603L38.7517 137.525ZM34.4704 137.603C34.4704 137.915 34.4364 138.149 34.3005 138.616C33.2812 142.982 32.4317 146.879 31.4803 150.933C31.3444 151.595 31.7181 151.596 33.2472 151.596C34.8782 151.596 35.048 151.557 35.15 151.011C35.5577 149.023 35.9655 146.606 36.3732 143.956C36.4072 143.644 36.4412 143.332 36.645 143.332C36.781 143.332 36.8489 143.761 36.8829 143.956C37.2906 146.373 37.7324 149.14 38.1061 151.089C38.2421 151.596 38.4459 151.596 39.975 151.596C41.572 151.596 41.9797 151.518 41.8438 151.05C40.8584 146.879 39.941 142.943 38.9216 138.538C38.7857 138.11 38.7517 137.837 38.7517 137.525L34.4704 137.603ZM18.0024 151.44C18.2403 151.673 18.8179 151.596 19.3616 151.596C20.8227 151.596 24.4244 151.596 25.8855 151.596C26.2593 151.596 26.2932 151.44 26.2932 149.647C26.2932 147.932 26.2593 147.776 25.8515 147.776C24.9341 147.776 23.541 147.776 22.6236 147.776C22.2498 147.776 21.7741 147.737 21.6042 147.62C21.4343 147.503 21.4343 146.762 21.4343 146.256C21.4343 143.138 21.4343 143.566 21.4343 140.448C21.4343 139.941 21.3663 139.552 21.6721 139.318C21.8081 139.24 22.1818 139.201 22.5216 139.201C23.1332 139.201 23.7788 139.201 24.0507 139.201C24.4924 139.201 24.4924 138.967 24.4924 137.33C24.4924 135.615 24.4584 135.381 24.0507 135.381C23.7448 135.381 22.9973 135.381 22.4197 135.381C22.1478 135.381 21.91 135.42 21.6721 135.225C21.4003 134.991 21.4683 134.563 21.4683 134.212C21.4683 131.6 21.4683 131.678 21.4683 129.067C21.4683 128.56 21.4683 128.599 21.6382 128.326C21.7401 128.17 22.1478 128.131 22.4197 128.131C23.0653 128.131 24.9001 128.131 25.8175 128.131C26.2593 128.131 26.2593 127.898 26.2593 126.144C26.2593 124.624 26.2593 124.312 25.8515 124.312C23.9827 124.312 20.6868 124.312 18.8179 124.312C18.4782 124.312 18.2403 124.312 18.0364 124.624C17.8326 124.935 17.7986 124.974 17.7986 125.481C17.7986 134.835 17.7986 140.76 17.7986 150.114C17.7986 150.582 17.7306 151.167 18.0024 151.44ZM239.232 12.7851C236.685 12.7851 236.685 13.005 236.685 13.518C236.685 22.3122 236.685 28.2482 236.685 37.0424C236.685 37.4821 236.613 38.0318 236.904 38.2883C237.158 38.5081 237.777 38.4348 238.359 38.4348C239.924 38.4348 245.345 38.4348 246.91 38.4348C247.31 38.4348 247.346 38.3982 247.346 35.7599C247.346 33.3782 247.31 33.3049 246.873 33.3049C245.891 33.3049 244.399 33.3049 243.417 33.3049C243.016 33.3049 242.507 33.2683 242.325 33.1583C242.143 33.0484 242.143 32.3522 242.143 31.8758C242.143 28.9444 242.143 21.1396 242.143 13.518C242.143 12.895 241.998 12.7851 239.232 12.7851ZM209.97 38.0684C210.152 35.9432 210.261 35.0637 210.479 33.0118C210.516 32.6453 210.879 32.7186 211.571 32.7186C212.153 32.7186 212.48 32.6453 212.517 33.0118C212.808 35.0271 212.917 35.9432 213.208 37.9951C213.281 38.5081 214.482 38.4348 215.537 38.4348C216.519 38.4348 218.484 38.4715 218.411 38.0684C216.701 28.4681 215.719 22.7885 214.154 13.408C214.045 12.7851 212.408 12.7485 211.498 12.7485C210.697 12.7485 208.805 12.7851 208.733 13.2981C207.35 22.7519 206.44 28.4681 204.876 38.1051C204.839 38.4348 206.95 38.4348 207.495 38.4348C208.66 38.4348 209.933 38.4715 209.97 38.0684ZM210.77 28.9444C210.879 26.7093 211.025 25.61 211.17 22.9717C211.17 22.8252 211.28 21.2129 211.498 21.2129C211.753 21.2129 211.862 22.6053 211.862 22.7885C212.044 25.6833 212.153 26.7825 212.262 28.9811C212.262 29.3475 211.971 29.2376 211.462 29.2376C210.843 29.2376 210.77 29.2376 210.77 28.9444ZM178.152 19.3441C178.152 27.4055 178.152 30.0437 178.152 38.0684C178.152 38.4348 178.37 38.4348 180.735 38.4348C183.428 38.4348 183.646 38.3982 183.646 38.0684C183.646 30.0437 183.646 27.4421 183.646 19.3441C183.646 18.8678 183.573 18.2448 183.901 17.9883C184.083 17.9151 184.738 17.9151 185.283 17.9151C185.902 17.9151 186.411 17.9151 186.848 17.9151C187.248 17.9151 187.284 17.6952 187.284 15.1302C187.284 13.0416 187.248 12.7851 186.811 12.7851C184.519 12.7851 177.351 12.7851 175.059 12.7851C174.622 12.7851 174.55 13.005 174.55 15.3134C174.55 17.5853 174.659 17.9151 175.204 17.9151C175.532 17.9151 176.041 17.9151 176.551 17.9151C177.06 17.9151 177.715 17.9151 177.897 17.9883C178.224 18.2448 178.152 18.8678 178.152 19.3441ZM147.824 28.1017C149.206 32.7919 149.461 34.0377 150.807 37.8852C151.026 38.5081 151.353 38.4348 152.699 38.4348C155.501 38.4348 155.392 38.3982 155.392 37.8119C155.392 28.3215 155.392 16.5226 155.392 13.518C155.392 12.8584 155.538 12.8218 152.699 12.8218C150.116 12.8218 150.08 12.8218 150.08 13.4813C150.08 16.999 150.08 19.3441 150.08 22.532C150.08 23.0816 150.116 24.0344 149.789 24.0344C149.534 24.0344 149.388 23.4114 149.279 23.045C148.188 19.7838 146.769 14.947 146.368 13.518C146.186 12.8584 146.041 12.8218 143.967 12.8218C141.384 12.8218 141.493 12.8218 141.493 13.4813C141.493 22.2755 141.493 28.6879 141.493 37.8852C141.493 38.3982 141.347 38.4348 143.967 38.4348C146.769 38.4348 146.805 38.3982 146.805 37.8119C146.805 33.085 146.805 32.7553 146.805 28.3215C146.805 27.5887 146.732 26.4894 147.06 26.4894C147.351 26.4894 147.642 27.4787 147.824 28.1017ZM112.316 38.2883C112.571 38.5081 113.189 38.4348 113.771 38.4348C115.336 38.4348 120.757 38.4348 122.322 38.4348C122.722 38.4348 122.759 38.3982 122.759 35.7599C122.759 33.3782 122.722 33.3049 122.286 33.3049C121.303 33.3049 119.811 33.3049 118.829 33.3049C118.429 33.3049 117.919 33.2683 117.737 33.1583C117.556 33.0484 117.556 32.3522 117.556 31.8758C117.556 28.9444 117.556 31.7659 117.556 28.8345C117.556 28.3582 117.483 27.9917 117.81 27.7719C117.956 27.6986 118.356 27.6619 118.72 27.6619C119.375 27.6619 120.066 27.6619 120.357 27.6619C120.83 27.6619 120.757 27.5154 120.757 25.1703C120.757 22.7152 120.794 22.5686 120.357 22.5686C120.03 22.5686 119.193 22.5686 118.574 22.5686C118.283 22.5686 118.029 22.6053 117.774 22.4221C117.483 22.2022 117.556 21.7991 117.556 21.4694C117.556 19.0143 117.556 21.2495 117.556 18.7945C117.556 18.3181 117.556 18.3548 117.737 18.0983C117.847 17.9517 118.283 17.915 118.574 17.915C119.266 17.915 121.23 17.915 122.213 17.915C122.686 17.915 122.686 17.7685 122.686 15.1302C122.686 12.895 122.686 12.7851 122.249 12.7851C120.248 12.7851 115.19 12.7851 113.189 12.7851C112.825 12.7851 112.571 12.7851 112.352 13.0782C112.134 13.3714 112.098 13.408 112.098 13.8844C112.098 22.6786 112.098 28.2482 112.098 37.0424C112.098 37.4821 112.025 38.0318 112.316 38.2883ZM92.97 37.8852C92.97 34.5141 92.97 32.169 92.97 28.5047C92.97 25.3535 90.132 25.5733 90.132 25.4268C90.132 25.2436 92.8245 25.0237 92.8245 21.7259C92.8245 20.2602 92.8245 20.4067 92.8245 18.7945C92.8245 15.0203 90.2775 12.7851 86.457 12.7851C85.2563 12.7851 82.2727 12.7851 81.3266 12.7851C80.2715 12.7851 80.2351 12.7851 80.2351 13.8844C80.2351 19.3441 80.2351 31.8758 80.2351 37.3356C80.2351 38.4715 80.5989 38.4348 82.7457 38.4348C85.2563 38.4348 85.6929 38.4348 85.6929 37.6287C85.6929 33.4515 85.6929 32.572 85.6929 28.3948C85.6929 27.9185 85.7657 27.9551 86.6026 27.9551C87.6577 27.9551 87.5122 29.1277 87.5122 30.1536C87.5122 30.5567 87.5122 35.0271 87.5122 37.702C87.5122 38.4715 87.585 38.4348 90.2047 38.4348C92.7517 38.4348 92.97 38.4715 92.97 37.8852ZM87.3667 20.2968C87.3667 20.6999 87.3667 21.2862 87.3667 21.7992C87.3667 22.2022 87.2575 23.0084 86.457 23.0084C85.8385 23.0084 85.6929 23.045 85.6929 22.5687C85.6929 21.0297 85.6929 22.7152 85.6929 18.538C85.6929 18.0616 85.8021 18.0983 86.457 18.0983C87.5122 18.0983 87.3667 19.2708 87.3667 20.2968ZM53.3305 38.0684C53.5124 35.9432 53.6215 35.0637 53.8399 33.0118C53.8762 32.6453 54.2401 32.7186 54.9314 32.7186C55.5136 32.7186 55.8411 32.6453 55.8775 33.0118C56.1685 35.0271 56.2777 35.9432 56.5688 37.9951C56.6416 38.5081 57.8423 38.4348 58.8975 38.4348C59.8799 38.4348 61.8447 38.4715 61.7719 38.0684C60.0618 28.4681 59.0794 22.7885 57.5148 13.408C57.4056 12.7851 55.7683 12.7485 54.8587 12.7485C54.0582 12.7485 52.1661 12.7851 52.0934 13.2981C50.7107 22.7519 49.8011 28.4681 48.2365 38.1051C48.2001 38.4348 50.3105 38.4348 50.8562 38.4348C52.0206 38.4348 53.2941 38.4715 53.3305 38.0684ZM54.1309 28.9444C54.2401 26.7093 54.3856 25.61 54.5312 22.9717C54.5312 22.8252 54.6404 21.2129 54.8587 21.2129C55.1134 21.2129 55.2225 22.6053 55.2225 22.7885C55.4044 25.6833 55.5136 26.7825 55.6228 28.9811C55.6228 29.3475 55.3317 29.2376 54.8223 29.2376C54.2037 29.2376 54.1309 29.2376 54.1309 28.9444ZM30.2467 23.6313C30.2467 18.2815 30.2467 24.1076 30.2467 18.7945C30.2467 15.0203 27.6997 12.7851 23.8792 12.7851C22.6785 12.7851 19.5493 12.7851 18.6033 12.7851C17.5481 12.7851 17.5117 12.7851 17.5117 13.8844C17.5117 19.3441 17.5117 31.8758 17.5117 37.3356C17.5117 38.4715 17.8392 38.4348 20.1679 38.4348C22.4965 38.4348 22.9696 38.5081 22.9696 37.8119C22.9696 36.7493 22.9696 32.3155 22.9696 31.1796C22.9696 29.8239 23.297 29.6407 23.8792 29.6407C27.6997 29.6407 30.2467 27.4055 30.2467 23.6313ZM24.7888 20.2968C24.7888 21.2129 24.7888 21.5793 24.7888 22.4954C24.7888 23.5214 24.9344 24.6939 23.8792 24.6939C22.9332 24.6939 22.9696 24.7305 22.9696 24.2542C22.9696 20.077 22.9696 22.7152 22.9696 18.538C22.9696 18.0616 22.9332 18.0983 23.8792 18.0983C24.9344 18.0983 24.7888 19.2708 24.7888 20.2968Z" fill="white"/>
</g>
<defs>
<clipPath id="clip0_19_351">
<rect width="264.433" height="165.271" fill="white"/>
</clipPath>
</defs>
</svg>
